<?xml version="1.0" encoding="UTF-8"?>
<svg id="Capa_2" data-name="Capa 2" xmlns="http://www.w3.org/2000/svg" viewBox="0 0 47.4 47.4">
  <defs>
    <style>
      .cls-1 {
        fill: #ff3000;
        stroke-width: 0px;
		
      }
	  
	  
    </style>
  </defs>
  <g id="Capa_16" data-name="Capa 16">
    <g>
      <g>
        <path class="cls-1" d="M0,21.52v2.18c0,.97.46,1.85,1.18,2.29l3.64,2.18c.3.18.62.27.95.27h8.02c.5,0,.66.81.21,1.08l-12.83,7.7c-.72.43-1.18,1.32-1.18,2.29v3.16c0,.97.46,1.85,1.18,2.29l3.64,2.18c.3.18.62.27.95.27h4.26c.33,0,.66-.09.95-.27l3.64-2.18c.72-.43,1.18-1.32,1.18-2.29v-3.16c0-.97.46-1.85,1.18-2.29l14.17-8.5c.3-.18.62-.27.95-.27h9.53c.33,0,.66-.09.95-.27l3.64-2.18c.72-.43,1.18-1.32,1.18-2.29v-2.18c0-1.41-.95-2.56-2.13-2.56H2.13c-1.18,0-2.13,1.14-2.13,2.56Z"/>
        <path class="cls-1" d="M21.07,40.47v2.18c0,.97.46,1.85,1.18,2.29l3.64,2.18c.3.18.62.27.95.27h14.79c.33,0,.66-.09.95-.27l3.64-2.18c.72-.43,1.18-1.32,1.18-2.29v-2.18c0-1.41-.95-2.56-2.13-2.56h-22.07c-1.18,0-2.13,1.14-2.13,2.56Z"/>
      </g>
      <path class="cls-1" d="M1.18,10.19l11.04,6.62c.6.36,1.31.36,1.91,0l5.77-3.46c.72-.43,1.18-1.32,1.18-2.29h0c0-.97-.46-1.85-1.18-2.29L5.72.27c-.3-.18-.62-.27-.95-.27h-2.63C.95,0,0,1.14,0,2.56v5.34c0,.97.46,1.85,1.18,2.29Z"/>
      <path class="cls-1" d="M27.51,8.77c-.72.43-1.18,1.32-1.18,2.29h0c0,.97.46,1.85,1.18,2.29l5.77,3.46c.6.36,1.31.36,1.91,0l11.04-6.62c.72-.43,1.18-1.32,1.18-2.29V2.56c0-1.41-.95-2.56-2.13-2.56h-2.63c-.33,0-.66.09-.95.27l-14.17,8.5Z"/>
    </g>
  </g>
</svg>
